# xmcd CD database file
#
# Track frame offsets:
#	150
#	9426
#	22702
#	41769
#	52226
#	65571
#	77126
#	89839
#	104394
#	118786
#	132175
#	145902
#	162602
#	182264
#	197486
#	208405
#	224529
#	234869
#	248641
#	271210
#	281773
#
# Disc length: 4038 seconds
#
# Revision: 0
# Processed by: cddbd v1.5.2PL0 Copyright (c) Steve Scherf et al.
# Submitted via: CDex 1.70beta2
#
DISCID=370fc415
DTITLE=Various Artist - Country Classic's 2--
DYEAR=1900
DGENRE=Country
TTITLE0=Charlie Pride_Kiss And Angel Good Morning
TTITLE1=Charlie Rich_Behind Closed Doos
TTITLE2=Tom T. Hall_Old Dog's, Children and Watermelon Wine
TTITLE3=Eric Weissberg and Steve Mandell_Duelling Banjos
TTITLE4=Billy Swan_I Can Help
TTITLE5=Diana Trask_Oh Boy
TTITLE6=Don Williams_You're My Best Friend
TTITLE7=Jeanne Pruett_Satin Sheets
TTITLE8=The Bellamy Brothers_Let Your Love Flow
TTITLE9=Dolly Parton_Here You Come Again
TTITLE10=Olivia Newton-John_Jolene
TTITLE11=Emmylou Harris_Save The Last Dance For Me
TTITLE12=Kenny Rogers_Coward Of The Country
TTITLE13=Sheena Easton_Morning Train (Nine To Five)
TTITLE14=Jerry Lee Lewis_Good Time Charlie's Got The Blues
TTITLE15=Willie Nelson_Blue Skies
TTITLE16=The Statler Brothers_Hello Mary Lou
TTITLE17=John Williamson_Rip Rip Woodchip
TTITLE18=Iris Dement_Our Town
TTITLE19=George Jones_Ain't Love A Lot Like That
TTITLE20=The Nitty Gritty Dirt Band_Will The Circle Be Unbroken
EXTD=
EXTT0=
EXTT1=
EXTT2=
EXTT3=
EXTT4=
EXTT5=
EXTT6=
EXTT7=
EXTT8=
EXTT9=
EXTT10=
EXTT11=
EXTT12=
EXTT13=
EXTT14=
EXTT15=
EXTT16=
EXTT17=
EXTT18=
EXTT19=
EXTT20=
PLAYORDER=
